<svg width="40" height="35" viewBox="0 0 40 35" fill="none" xmlns="http://www.w3.org/2000/svg">
<path d="M39.9721 1.41825C40.0162 1.21206 40.004 0.997784 39.9366 0.797972C39.8693 0.59816 39.7493 0.42021 39.5893 0.282863C39.4293 0.145515 39.2352 0.0538531 39.0275 0.0175293C38.8198 -0.0187946 38.6061 0.00156403 38.409 0.0764613L0.753149 14.4513C0.531921 14.536 0.341533 14.6856 0.207083 14.8806C0.072633 15.0757 0.000433375 15.3068 1.94485e-06 15.5437C-0.000429486 15.7806 0.0709275 16.012 0.204666 16.2075C0.338405 16.403 0.528247 16.5534 0.749165 16.6388L11.3272 20.7247V33.5928C11.327 33.8566 11.4159 34.1127 11.5794 34.3197C11.7429 34.5268 11.9714 34.6726 12.2281 34.7336C12.4847 34.7946 12.7545 34.7672 12.9936 34.6559C13.2328 34.5445 13.4274 34.3558 13.5459 34.1201L17.9209 25.4383L28.5974 33.3619C28.7482 33.4737 28.9236 33.5476 29.1089 33.5774C29.2942 33.6073 29.484 33.5922 29.6622 33.5335C29.8405 33.4748 30.002 33.3742 30.1333 33.2401C30.2646 33.1059 30.3618 32.9423 30.4167 32.7628C40.3853 0.0789604 39.9543 1.50035 39.9721 1.41825ZM30.6768 5.5368L12.3332 18.6007L4.44022 15.5524L30.6768 5.5368ZM13.6709 20.5251L29.6604 9.13794C15.9017 23.6526 16.6203 22.8887 16.5603 22.9694C16.4711 23.0894 16.7153 22.6219 13.6709 28.6633V20.5251ZM28.6597 30.4895L19.2613 23.5149L36.2545 5.58836L28.6597 30.4895Z" fill="white"/>
</svg>